<svg width="1400" height="880" viewBox="0 0 1400 880" fill="none" xmlns="http://www.w3.org/2000/svg">
  <rect width="1400" height="880" rx="28" fill="#081321"/>
  <rect x="0" y="0" width="228" height="880" fill="#262832"/>
  <text x="22" y="70" fill="#F8FBFF" font-family="Segoe UI, Arial, sans-serif" font-size="34" font-weight="700">Aura</text>
  <text x="22" y="118" fill="#C9D8EC" font-family="Segoe UI, Arial, sans-serif" font-size="18">Contexto da conversa</text>
  <circle cx="30" cy="164" r="8" fill="#FF5A5F"/>
  <text x="48" y="170" fill="#F8FBFF" font-family="Segoe UI, Arial, sans-serif" font-size="16">Demonstração guiada</text>
  <circle cx="30" cy="204" r="8" fill="#3B4256"/>
  <text x="48" y="210" fill="#F8FBFF" font-family="Segoe UI, Arial, sans-serif" font-size="16">Agente livre</text>

  <rect x="20" y="236" width="184" height="120" rx="14" fill="#2D4D74"/>
  <text x="34" y="266" fill="#BFE0FF" font-family="Segoe UI, Arial, sans-serif" font-size="14">Cenário pronto para demo</text>
  <text x="34" y="288" fill="#BFE0FF" font-family="Segoe UI, Arial, sans-serif" font-size="14">com dados da DIO e</text>
  <text x="34" y="310" fill="#BFE0FF" font-family="Segoe UI, Arial, sans-serif" font-size="14">contexto financeiro</text>
  <text x="34" y="332" fill="#BFE0FF" font-family="Segoe UI, Arial, sans-serif" font-size="14">consistente.</text>

  <text x="22" y="398" fill="#F8FBFF" font-family="Segoe UI, Arial, sans-serif" font-size="15" font-weight="700">Nome</text>
  <text x="22" y="440" fill="#F8FBFF" font-family="Segoe UI, Arial, sans-serif" font-size="15" font-weight="700">Perfil</text>
  <text x="22" y="482" fill="#F8FBFF" font-family="Segoe UI, Arial, sans-serif" font-size="15" font-weight="700">Objetivo</text>
  <text x="72" y="398" fill="#F8FBFF" font-family="Segoe UI, Arial, sans-serif" font-size="15">João Silva</text>
  <text x="72" y="440" fill="#F8FBFF" font-family="Segoe UI, Arial, sans-serif" font-size="15">Moderado</text>
  <text x="88" y="482" fill="#F8FBFF" font-family="Segoe UI, Arial, sans-serif" font-size="15">Construir reserva</text>
  <text x="22" y="520" fill="#F8FBFF" font-family="Segoe UI, Arial, sans-serif" font-size="15">de emergência</text>
  <text x="22" y="580" fill="#F8FBFF" font-family="Segoe UI, Arial, sans-serif" font-size="15" font-weight="700">Reserva atual</text>
  <text x="122" y="580" fill="#F8FBFF" font-family="Segoe UI, Arial, sans-serif" font-size="15">R$ 10.000,00</text>

  <text x="22" y="632" fill="#F8FBFF" font-family="Segoe UI, Arial, sans-serif" font-size="22" font-weight="700">Configuração de IA</text>
  <text x="22" y="668" fill="#F8FBFF" font-family="Segoe UI, Arial, sans-serif" font-size="15" font-weight="700">Provedor de IA</text>
  <rect x="20" y="682" width="180" height="48" rx="12" fill="#0F1320"/>
  <text x="34" y="712" fill="#F8FBFF" font-family="Segoe UI, Arial, sans-serif" font-size="16">gemini</text>
  <text x="22" y="756" fill="#F8FBFF" font-family="Segoe UI, Arial, sans-serif" font-size="15" font-weight="700">Gemini API Key</text>
  <rect x="20" y="770" width="180" height="48" rx="12" fill="#0F1320"/>
  <circle cx="190" cy="794" r="7" fill="#D9E4F2"/>
  <circle cx="190" cy="794" r="3" fill="#0F1320"/>

  <rect x="248" y="36" width="1122" height="194" rx="24" fill="#0D1B31" stroke="#203D62"/>
  <text x="282" y="92" fill="#F3B562" font-family="Segoe UI, Arial, sans-serif" font-size="18" font-weight="700" letter-spacing="2">DIAGNÓSTICO FINANCEIRO COM IA, DADOS E GUARDRAILS</text>
  <text x="282" y="150" fill="#F8FBFF" font-family="Segoe UI, Arial, sans-serif" font-size="42" font-weight="700">Aura, Mentora de Saúde Financeira</text>
  <text x="282" y="195" fill="#D2E0F1" font-family="Segoe UI, Arial, sans-serif" font-size="22">Uma mentora digital que explica, organiza e contextualiza, sem promessas vazias.</text>

  <text x="256" y="300" fill="#F8FBFF" font-family="Segoe UI, Arial, sans-serif" font-size="18">Entradas</text>
  <text x="256" y="350" fill="#FFFFFF" font-family="Segoe UI, Arial, sans-serif" font-size="34" font-weight="700">R$ 5.000,00</text>
  <text x="620" y="300" fill="#F8FBFF" font-family="Segoe UI, Arial, sans-serif" font-size="18">Saídas</text>
  <text x="620" y="350" fill="#FFFFFF" font-family="Segoe UI, Arial, sans-serif" font-size="34" font-weight="700">R$ 2.488,90</text>
  <text x="1004" y="300" fill="#F8FBFF" font-family="Segoe UI, Arial, sans-serif" font-size="18">Saldo do período</text>
  <text x="1004" y="350" fill="#FFFFFF" font-family="Segoe UI, Arial, sans-serif" font-size="34" font-weight="700">R$ 2.511,10</text>

  <text x="256" y="432" fill="#FF5A5F" font-family="Segoe UI, Arial, sans-serif" font-size="20" font-weight="700">Chat educativo</text>
  <text x="430" y="432" fill="#F8FBFF" font-family="Segoe UI, Arial, sans-serif" font-size="20">Diagnóstico</text>
  <text x="572" y="432" fill="#F8FBFF" font-family="Segoe UI, Arial, sans-serif" font-size="20">Plano de 7 dias</text>
  <line x1="254" y1="448" x2="1332" y2="448" stroke="#334761" stroke-width="2"/>

  <text x="256" y="508" fill="#F8FBFF" font-family="Segoe UI, Arial, sans-serif" font-size="36" font-weight="700">Converse com a Aura</text>
  <text x="256" y="548" fill="#A9B9CF" font-family="Segoe UI, Arial, sans-serif" font-size="18">Perguntas sugeridas: Onde estou gastando mais? | O que é Selic?</text>
  <rect x="256" y="574" width="144" height="46" rx="12" fill="#0F1320" stroke="#334761"/>
  <text x="280" y="603" fill="#F8FBFF" font-family="Segoe UI, Arial, sans-serif" font-size="18" font-weight="700">Nova conversa</text>

  <circle cx="280" cy="670" r="18" fill="#F59B23"/>
  <rect x="272" y="662" width="16" height="14" rx="2.5" stroke="#0F1320" stroke-width="2"/>
  <path d="M276 662V658C276 655.791 277.791 654 280 654C282.209 654 284 655.791 284 658V662" stroke="#0F1320" stroke-width="2" stroke-linecap="round"/>
  <circle cx="280" cy="669" r="1.8" fill="#0F1320"/>
  <text x="314" y="668" fill="#F8FBFF" font-family="Segoe UI, Arial, sans-serif" font-size="22">Sou a Aura. Posso analisar seus gastos, explicar conceitos financeiros</text>
  <text x="314" y="701" fill="#F8FBFF" font-family="Segoe UI, Arial, sans-serif" font-size="22">e montar um plano educativo com base no seu contexto.</text>
  <text x="314" y="732" fill="#A9B9CF" font-family="Segoe UI, Arial, sans-serif" font-size="18">Modo: intro</text>

  <rect x="256" y="752" width="1080" height="72" rx="18" fill="#1F2430"/>
  <circle cx="292" cy="788" r="18" fill="#FF4D4F"/>
  <circle cx="292" cy="788" r="7" fill="none" stroke="#0F1320" stroke-width="2"/>
  <circle cx="289" cy="786" r="1.6" fill="#0F1320"/>
  <circle cx="295" cy="786" r="1.6" fill="#0F1320"/>
  <path d="M288 792C289.6 794 294.4 794 296 792" stroke="#0F1320" stroke-width="2" stroke-linecap="round"/>
  <text x="326" y="795" fill="#F8FBFF" font-family="Segoe UI, Arial, sans-serif" font-size="22">O que é Selic?</text>

  <rect x="256" y="838" width="1080" height="36" rx="10" fill="#0F1320" opacity="0.55"/>
  <rect x="256" y="804" width="1080" height="56" rx="16" fill="#2B2A33" opacity="0"/>
  <text x="286" y="855" fill="#9FB0C7" font-family="Segoe UI, Arial, sans-serif" font-size="20">Digite sua dúvida sobre saúde financeira</text>
</svg>
